<svg viewBox="0 0 512 512" xmlns="http://www.w3.org/2000/svg" fill-rule="evenodd" clip-rule="evenodd" stroke-linecap="round" stroke-linejoin="round" stroke-miterlimit="1.5"><g transform="matrix(1 0 0 .9944 0 0)"><path d="M512 55.257C512 24.76 487.379 0 457.052 0H54.948C24.621 0 0 24.76 0 55.257v404.367c0 30.497 24.621 55.256 54.948 55.256h402.104c30.327 0 54.948-24.759 54.948-55.256V55.257z" fill="#004db2"/><clipPath id="prefix__a"><path d="M512 55.257C512 24.76 487.379 0 457.052 0H54.948C24.621 0 0 24.76 0 55.257v404.367c0 30.497 24.621 55.256 54.948 55.256h402.104c30.327 0 54.948-24.759 54.948-55.256V55.257z"/></clipPath><g opacity=".5" clip-path="url(#prefix__a)"><path d="M37.568 32.775h388.168H37.568z" fill="none" stroke="#fff" stroke-width=".71" transform="matrix(0 1.32644 -1 0 544.775 -49.831)"/><path d="M37.568 32.775h388.168H37.568z" fill="none" stroke="#fff" stroke-width="1.42" transform="matrix(0 1.32644 -1 0 512.775 -49.831)"/><path d="M37.568 32.775h388.168H37.568z" fill="none" stroke="#fff" stroke-width=".71" transform="matrix(0 1.32644 -1 0 480.775 -49.831)"/><path d="M37.568 32.775h388.168H37.568z" fill="none" stroke="#fff" stroke-width=".71" transform="matrix(0 1.32644 -1 0 448.775 -49.831)"/><path d="M37.568 32.775h388.168H37.568z" fill="none" stroke="#fff" stroke-width=".71" transform="matrix(0 1.32644 -1 0 416.775 -49.831)"/><path d="M37.568 32.775h388.168H37.568z" fill="none" stroke="#fff" stroke-width="1.42" transform="matrix(0 1.32644 -1 0 384.775 -49.831)"/><path d="M37.568 32.775h388.168H37.568z" fill="none" stroke="#fff" stroke-width=".71" transform="matrix(0 1.32644 -1 0 352.775 -49.831)"/><path d="M37.568 32.775h388.168H37.568z" fill="none" stroke="#fff" stroke-width=".71" transform="matrix(0 1.32644 -1 0 320.775 -49.831)"/><path d="M37.568 32.775h388.168H37.568z" fill="none" stroke="#fff" stroke-width=".71" transform="matrix(0 1.32644 -1 0 288.775 -49.831)"/><path d="M37.568 32.775h388.168H37.568z" fill="none" stroke="#fff" stroke-width="1.42" transform="matrix(0 1.32644 -1 0 256.775 -49.831)"/><path d="M37.568 32.775h388.168H37.568z" fill="none" stroke="#fff" stroke-width=".71" transform="matrix(0 1.32644 -1 0 224.775 -49.831)"/><path d="M37.568 32.775h388.168H37.568z" fill="none" stroke="#fff" stroke-width=".71" transform="matrix(0 1.32644 -1 0 192.775 -49.831)"/><path d="M37.568 32.775h388.168H37.568z" fill="none" stroke="#fff" stroke-width=".71" transform="matrix(0 1.32644 -1 0 160.775 -49.831)"/><path d="M37.568 32.775h388.168H37.568z" fill="none" stroke="#fff" stroke-width="1.42" transform="matrix(0 1.32644 -1 0 128.775 -49.831)"/><path d="M37.568 32.775h388.168H37.568z" fill="none" stroke="#fff" stroke-width=".71" transform="matrix(0 1.32644 -1 0 96.775 -49.831)"/><path d="M37.568 32.775h388.168H37.568z" fill="none" stroke="#fff" stroke-width=".71" transform="matrix(0 1.32644 -1 0 64.775 -49.831)"/><path d="M37.568 32.775h388.168H37.568z" fill="none" stroke="#fff" stroke-width=".71" transform="matrix(0 1.32644 -1 0 32.775 -49.831)"/><g><path d="M37.568 32.775h388.168H37.568z" fill="none" stroke="#fff" stroke-width=".71" transform="matrix(1.31901 0 0 1.00563 -49.552 -32.96)"/><path d="M37.568 32.775h388.168H37.568z" fill="none" stroke="#fff" stroke-width="1.42" transform="matrix(1.31901 0 0 1.00563 -49.552 -.78)"/><path d="M37.568 32.775h388.168H37.568z" fill="none" stroke="#fff" stroke-width=".71" transform="matrix(1.31901 0 0 1.00563 -49.552 31.4)"/><path d="M37.568 32.775h388.168H37.568z" fill="none" stroke="#fff" stroke-width=".71" transform="matrix(1.31901 0 0 1.00563 -49.552 63.581)"/><path d="M37.568 32.775h388.168H37.568z" fill="none" stroke="#fff" stroke-width=".71" transform="matrix(1.31901 0 0 1.00563 -49.552 95.761)"/><path d="M37.568 32.775h388.168H37.568z" fill="none" stroke="#fff" stroke-width="1.42" transform="matrix(1.31901 0 0 1.00563 -49.552 127.941)"/><path d="M37.568 32.775h388.168H37.568z" fill="none" stroke="#fff" stroke-width=".71" transform="matrix(1.31901 0 0 1.00563 -49.552 160.121)"/><path d="M37.568 32.775h388.168H37.568z" fill="none" stroke="#fff" stroke-width=".71" transform="matrix(1.31901 0 0 1.00563 -49.552 192.302)"/><path d="M37.568 32.775h388.168H37.568z" fill="none" stroke="#fff" stroke-width=".71" transform="matrix(1.31901 0 0 1.00563 -49.552 224.482)"/><path d="M37.568 32.775h388.168H37.568z" fill="none" stroke="#fff" stroke-width="1.42" transform="matrix(1.31901 0 0 1.00563 -49.552 256.662)"/><path d="M37.568 32.775h388.168H37.568z" fill="none" stroke="#fff" stroke-width=".71" transform="matrix(1.31901 0 0 1.00563 -49.552 288.842)"/><path d="M37.568 32.775h388.168H37.568z" fill="none" stroke="#fff" stroke-width=".71" transform="matrix(1.31901 0 0 1.00563 -49.552 321.022)"/><path d="M37.568 32.775h388.168H37.568z" fill="none" stroke="#fff" stroke-width=".71" transform="matrix(1.31901 0 0 1.00563 -49.552 353.202)"/><path d="M37.568 32.775h388.168H37.568z" fill="none" stroke="#fff" stroke-width="1.42" transform="matrix(1.31901 0 0 1.00563 -49.552 385.383)"/><path d="M37.568 32.775h388.168H37.568z" fill="none" stroke="#fff" stroke-width=".71" transform="matrix(1.31901 0 0 1.00563 -49.552 417.563)"/><path d="M37.568 32.775h388.168H37.568z" fill="none" stroke="#fff" stroke-width=".71" transform="matrix(1.31901 0 0 1.00563 -49.552 449.743)"/><path d="M37.568 32.775h388.168H37.568z" fill="none" stroke="#fff" stroke-width=".71" transform="matrix(1.31901 0 0 1.00563 -49.552 481.923)"/></g></g><path d="M512 55.257C512 24.76 487.379 0 457.052 0H54.948C24.621 0 0 24.76 0 55.257v404.367c0 30.497 24.621 55.256 54.948 55.256h402.104c30.327 0 54.948-24.759 54.948-55.256V55.257z" fill="none" stroke="#fff" stroke-width=".42"/></g><path d="M434.88 240.108l-37.214-32.585V116.76c0-5.58-4.592-10.173-10.173-10.173h-61.038c-5.58 0-10.173 4.593-10.173 10.173v19.551L261.94 88.784c-3.817-3.336-9.573-3.336-13.39 0L75.608 240.108a10.18 10.18 0 00-3.476 7.658c0 5.582 4.592 10.175 10.174 10.175 2.463 0 4.844-.895 6.698-2.516l23.818-20.868V381.26c.017 16.736 13.783 30.502 30.519 30.519h223.806c16.736-.017 30.502-13.783 30.52-30.52v-146.7l23.817 20.848a10.176 10.176 0 006.44 2.297c5.58 0 10.173-4.592 10.173-10.173 0-2.811-1.165-5.5-3.216-7.422zm-57.56 141.15c0 5.581-4.592 10.174-10.173 10.174H143.341c-5.58 0-10.173-4.593-10.173-10.173V216.755l122.076-106.817L377.32 216.755v164.504zm0-191.538l-40.692-35.606v-27.18h40.692v62.786zM204.38 225.274v67.823c.031 9.287 7.663 16.92 16.95 16.95h67.804c9.296-.02 16.941-7.655 16.976-16.95v-67.823c-.028-9.298-7.677-16.94-16.976-16.957H221.33c-9.29.028-16.927 7.667-16.951 16.957zm20.346 3.39h61.038V289.7h-61.038v-61.038z" fill="#fff" fill-rule="nonzero"/></svg>