<?xml version="1.0" encoding="UTF-8" standalone="no"?>
<!DOCTYPE svg PUBLIC "-//W3C//DTD SVG 1.1//EN" "http://www.w3.org/Graphics/SVG/1.1/DTD/svg11.dtd">
<svg width="100%" height="100%" viewBox="0 0 128 128" version="1.1" xmlns="http://www.w3.org/2000/svg" xmlns:xlink="http://www.w3.org/1999/xlink" xml:space="preserve" xmlns:serif="http://www.serif.com/" style="fill-rule:evenodd;clip-rule:evenodd;stroke-linecap:round;stroke-linejoin:round;stroke-miterlimit:1.5;">
    <circle cx="64" cy="64" r="61.122" style="fill:#fff;stroke:#002f6c;stroke-width:2.5px;"/>
    <path id="Fingerprint-Blue" serif:id="Fingerprint Blue" d="M88.391,32.416c-0.336,0 -0.671,-0.084 -0.965,-0.252c-8.053,-4.153 -15.016,-5.914 -23.363,-5.914c-8.305,0 -16.191,1.971 -23.363,5.914c-1.007,0.545 -2.265,0.168 -2.853,-0.839c-0.545,-1.007 -0.167,-2.307 0.839,-2.852c7.802,-4.237 16.359,-6.418 25.377,-6.418c8.934,0 16.736,1.972 25.293,6.376c1.048,0.545 1.426,1.803 0.88,2.81c-0.377,0.755 -1.09,1.175 -1.845,1.175Zm-60.023,22.021c-0.42,0 -0.839,-0.126 -1.217,-0.378c-0.964,-0.671 -1.174,-1.971 -0.503,-2.936c4.153,-5.872 9.438,-10.486 15.729,-13.716c13.171,-6.795 30.033,-6.837 43.246,-0.042c6.291,3.23 11.576,7.802 15.729,13.632c0.671,0.923 0.461,2.265 -0.503,2.936c-0.965,0.671 -2.266,0.462 -2.937,-0.503c-3.775,-5.285 -8.556,-9.438 -14.219,-12.332c-12.038,-6.166 -27.432,-6.166 -39.428,0.042c-5.705,2.936 -10.486,7.131 -14.261,12.416c-0.336,0.587 -0.965,0.881 -1.636,0.881Zm26.215,50.627c-0.545,0 -1.09,-0.21 -1.468,-0.629c-3.649,-3.649 -5.62,-5.998 -8.431,-11.074c-2.894,-5.159 -4.404,-11.451 -4.404,-18.204c0,-12.457 10.654,-22.608 23.741,-22.608c13.087,0 23.741,10.151 23.741,22.608c0,1.175 -0.923,2.098 -2.098,2.098c-1.174,0 -2.097,-0.923 -2.097,-2.098c0,-10.15 -8.766,-18.413 -19.546,-18.413c-10.78,0 -19.546,8.263 -19.546,18.413c0,6.04 1.342,11.619 3.901,16.149c2.684,4.824 4.53,6.879 7.759,10.151c0.797,0.839 0.797,2.139 0,2.978c-0.461,0.419 -1.006,0.629 -1.552,0.629Zm30.075,-7.76c-4.992,0 -9.396,-1.258 -13.003,-3.733c-6.25,-4.236 -9.983,-11.115 -9.983,-18.414c0,-1.174 0.923,-2.097 2.097,-2.097c1.175,0 2.098,0.923 2.098,2.097c0,5.915 3.02,11.493 8.137,14.933c2.978,2.013 6.459,2.978 10.654,2.978c1.006,0 2.684,-0.126 4.362,-0.42c1.133,-0.209 2.223,0.546 2.433,1.72c0.21,1.133 -0.545,2.223 -1.72,2.433c-2.391,0.461 -4.488,0.503 -5.075,0.503Zm-8.431,8.641c-0.168,0 -0.378,-0.042 -0.545,-0.084c-6.67,-1.846 -11.032,-4.32 -15.604,-8.808c-5.872,-5.831 -9.102,-13.591 -9.102,-21.896c0,-6.795 5.789,-12.331 12.919,-12.331c7.131,0 12.919,5.536 12.919,12.331c0,4.488 3.901,8.138 8.725,8.138c4.823,0 8.724,-3.65 8.724,-8.138c0,-15.813 -13.632,-28.648 -30.41,-28.648c-11.912,0 -22.818,6.627 -27.725,16.904c-1.636,3.397 -2.475,7.382 -2.475,11.744c0,3.272 0.294,8.431 2.81,15.142c0.42,1.091 -0.126,2.307 -1.216,2.685c-1.091,0.419 -2.307,-0.168 -2.685,-1.217c-2.055,-5.494 -3.062,-10.947 -3.062,-16.61c0,-5.033 0.965,-9.605 2.853,-13.59c5.578,-11.702 17.952,-19.294 31.5,-19.294c19.085,0 34.605,14.722 34.605,32.842c0,6.795 -5.789,12.332 -12.919,12.332c-7.131,0 -12.919,-5.537 -12.919,-12.332c0,-4.488 -3.901,-8.137 -8.725,-8.137c-4.824,0 -8.724,3.649 -8.724,8.137c0,7.173 2.768,13.884 7.843,18.917c3.985,3.943 7.802,6.124 13.716,7.76c1.133,0.294 1.762,1.468 1.468,2.559c-0.209,0.965 -1.09,1.594 -1.971,1.594Z" style="fill:#002f6c;fill-rule:nonzero;"/>
</svg>
